<svg width="232" height="62" viewBox="0 0 232 62" fill="none" xmlns="http://www.w3.org/2000/svg">
<path d="M71.1658 29.3632C68.4501 29.3632 66.1928 28.4551 64.3939 26.6389C62.6123 24.84 61.7215 22.6 61.7215 19.9189C61.7215 17.2205 62.6123 14.9805 64.3939 13.1989C66.1928 11.3827 68.4501 10.4746 71.1658 10.4746C72.809 10.4746 74.3225 10.8638 75.7063 11.6422C77.1074 12.4032 78.1971 13.4411 78.9755 14.7557L75.8879 16.5459C75.4382 15.733 74.7982 15.1016 73.9679 14.6519C73.1377 14.1849 72.2036 13.9514 71.1658 13.9514C69.4015 13.9514 67.9744 14.5049 66.8847 15.6119C65.8123 16.7362 65.276 18.1719 65.276 19.9189C65.276 21.6486 65.8123 23.0757 66.8847 24.2C67.9744 25.307 69.4015 25.8605 71.1658 25.8605C72.2036 25.8605 73.1377 25.6357 73.9679 25.1859C74.8155 24.7189 75.4555 24.0876 75.8879 23.2919L78.9755 25.0822C78.1971 26.3968 77.1074 27.4432 75.7063 28.2216C74.3225 28.9827 72.809 29.3632 71.1658 29.3632ZM92.1483 27.3914C90.8337 28.7059 89.2078 29.3632 87.2705 29.3632C85.3332 29.3632 83.7073 28.7059 82.3927 27.3914C81.0781 26.0768 80.4208 24.4508 80.4208 22.5135C80.4208 20.5935 81.0781 18.9762 82.3927 17.6616C83.7246 16.3297 85.3505 15.6638 87.2705 15.6638C89.1905 15.6638 90.8165 16.3297 92.1483 17.6616C93.4802 18.9935 94.1462 20.6108 94.1462 22.5135C94.1462 24.4335 93.4802 26.0595 92.1483 27.3914ZM84.7537 25.0822C85.4283 25.7568 86.2673 26.0941 87.2705 26.0941C88.2737 26.0941 89.1127 25.7568 89.7873 25.0822C90.4619 24.4076 90.7992 23.5514 90.7992 22.5135C90.7992 21.4757 90.4619 20.6195 89.7873 19.9449C89.1127 19.2703 88.2737 18.933 87.2705 18.933C86.2673 18.933 85.4283 19.2703 84.7537 19.9449C84.0964 20.6368 83.7678 21.493 83.7678 22.5135C83.7678 23.5341 84.0964 24.3903 84.7537 25.0822ZM98.1613 14.4703C97.6078 14.4703 97.1235 14.2714 96.7083 13.8735C96.3105 13.4584 96.1116 12.9741 96.1116 12.4205C96.1116 11.867 96.3105 11.3827 96.7083 10.9676C97.1235 10.5524 97.6078 10.3449 98.1613 10.3449C98.7321 10.3449 99.2164 10.5524 99.6143 10.9676C100.029 11.3827 100.237 11.867 100.237 12.4205C100.237 12.9741 100.029 13.4584 99.6143 13.8735C99.2164 14.2714 98.7321 14.4703 98.1613 14.4703ZM99.8478 29H96.5008V16.027H99.8478V29ZM110.124 15.6638C111.56 15.6638 112.727 16.1395 113.627 17.0908C114.561 18.0595 115.028 19.3741 115.028 21.0346V29H111.681V21.4497C111.681 20.6022 111.447 19.9449 110.98 19.4778C110.531 19.0108 109.908 18.7773 109.112 18.7773C108.23 18.7773 107.53 19.0541 107.011 19.6076C106.509 20.1438 106.258 20.9395 106.258 21.9946V29H102.911V16.027H106.258V17.48C107.054 16.2692 108.343 15.6638 110.124 15.6638Z" fill="#161530"/>
<path d="M126.656 29.3632C123.94 29.3632 121.683 28.4551 119.884 26.6389C118.102 24.84 117.211 22.6 117.211 19.9189C117.211 17.2205 118.102 14.9805 119.884 13.1989C121.683 11.3827 123.94 10.4746 126.656 10.4746C128.299 10.4746 129.812 10.8638 131.196 11.6422C132.597 12.4032 133.687 13.4411 134.465 14.7557L131.378 16.5459C130.928 15.733 130.288 15.1016 129.458 14.6519C128.628 14.1849 127.693 13.9514 126.656 13.9514C124.891 13.9514 123.464 14.5049 122.375 15.6119C121.302 16.7362 120.766 18.1719 120.766 19.9189C120.766 21.6486 121.302 23.0757 122.375 24.2C123.464 25.307 124.891 25.8605 126.656 25.8605C127.693 25.8605 128.628 25.6357 129.458 25.1859C130.305 24.7189 130.945 24.0876 131.378 23.2919L134.465 25.0822C133.687 26.3968 132.597 27.4432 131.196 28.2216C129.812 28.9827 128.299 29.3632 126.656 29.3632ZM143.925 15.6638C145.361 15.6638 146.528 16.1395 147.428 17.0908C148.362 18.0595 148.829 19.3741 148.829 21.0346V29H145.482V21.4497C145.482 20.6022 145.248 19.9449 144.781 19.4778C144.331 19.0108 143.709 18.7773 142.913 18.7773C142.031 18.7773 141.33 19.0541 140.811 19.6076C140.31 20.1438 140.059 20.9395 140.059 21.9946V29H136.712V10.8378H140.059V17.48C140.855 16.2692 142.143 15.6638 143.925 15.6638ZM161.546 17.5578V16.027H164.893V29H161.546V27.4692C160.543 28.7319 159.133 29.3632 157.317 29.3632C155.587 29.3632 154.1 28.7059 152.854 27.3914C151.626 26.0595 151.012 24.4335 151.012 22.5135C151.012 20.6108 151.626 18.9935 152.854 17.6616C154.1 16.3297 155.587 15.6638 157.317 15.6638C159.133 15.6638 160.543 16.2951 161.546 17.5578ZM155.371 25.16C156.046 25.8346 156.902 26.1719 157.94 26.1719C158.977 26.1719 159.834 25.8346 160.508 25.16C161.2 24.4681 161.546 23.5859 161.546 22.5135C161.546 21.4411 161.2 20.5676 160.508 19.893C159.834 19.2011 158.977 18.8551 157.94 18.8551C156.902 18.8551 156.046 19.2011 155.371 19.893C154.696 20.5676 154.359 21.4411 154.359 22.5135C154.359 23.5859 154.696 24.4681 155.371 25.16ZM175.141 15.6638C176.577 15.6638 177.744 16.1395 178.644 17.0908C179.578 18.0595 180.045 19.3741 180.045 21.0346V29H176.698V21.4497C176.698 20.6022 176.464 19.9449 175.997 19.4778C175.548 19.0108 174.925 18.7773 174.129 18.7773C173.247 18.7773 172.547 19.0541 172.028 19.6076C171.526 20.1438 171.275 20.9395 171.275 21.9946V29H167.928V16.027H171.275V17.48C172.071 16.2692 173.359 15.6638 175.141 15.6638ZM192.84 17.6357V16.027H196.109V28.3773C196.109 30.3665 195.443 31.8973 194.111 32.9697C192.797 34.0249 191.206 34.5524 189.337 34.5524C186.397 34.5524 184.347 33.4973 183.188 31.387L186.042 29.7524C186.682 30.9632 187.815 31.5686 189.441 31.5686C190.496 31.5686 191.327 31.2919 191.932 30.7384C192.537 30.1849 192.84 29.3978 192.84 28.3773V26.9762C191.854 28.2908 190.47 28.9481 188.689 28.9481C186.855 28.9481 185.316 28.3081 184.07 27.0281C182.842 25.7135 182.228 24.1395 182.228 22.3059C182.228 20.4724 182.851 18.907 184.096 17.6097C185.342 16.3124 186.873 15.6638 188.689 15.6638C190.47 15.6638 191.854 16.3211 192.84 17.6357ZM191.802 24.8746C192.494 24.2 192.84 23.3438 192.84 22.3059C192.84 21.2681 192.494 20.4292 191.802 19.7892C191.128 19.1146 190.263 18.7773 189.208 18.7773C188.17 18.7773 187.296 19.1146 186.587 19.7892C185.913 20.4292 185.575 21.2681 185.575 22.3059C185.575 23.3438 185.913 24.2 186.587 24.8746C187.279 25.5319 188.153 25.8605 189.208 25.8605C190.263 25.8605 191.128 25.5319 191.802 24.8746ZM211.754 23.8886H201.972C202.405 25.5146 203.624 26.3276 205.631 26.3276C206.911 26.3276 207.879 25.8951 208.537 25.0303L211.235 26.587C209.955 28.4378 208.07 29.3632 205.579 29.3632C203.434 29.3632 201.713 28.7146 200.416 27.4173C199.118 26.12 198.47 24.4854 198.47 22.5135C198.47 20.5762 199.11 18.9503 200.39 17.6357C201.652 16.3211 203.296 15.6638 205.319 15.6638C207.239 15.6638 208.805 16.3211 210.016 17.6357C211.261 18.9503 211.884 20.5762 211.884 22.5135C211.884 22.8768 211.841 23.3351 211.754 23.8886ZM201.921 21.2941H208.537C208.347 20.4465 207.957 19.7978 207.369 19.3481C206.798 18.8984 206.115 18.6735 205.319 18.6735C204.42 18.6735 203.676 18.907 203.088 19.3741C202.5 19.8238 202.111 20.4638 201.921 21.2941ZM217.567 16.027V18.2584C217.861 17.4454 218.363 16.8314 219.072 16.4162C219.781 15.9838 220.594 15.7676 221.511 15.7676V19.5038C220.491 19.3654 219.574 19.573 218.761 20.1265C217.965 20.6627 217.567 21.5535 217.567 22.7989V29H214.22V16.027H217.567Z" fill="#3D5DDD"/>
<g filter="url(#filter0_d_419_6280)">
<rect x="22" y="17.1289" width="17.8053" height="17.8053" rx="0.864865" fill="url(#paint0_linear_419_6280)"/>
</g>
<g filter="url(#filter1_d_419_6280)">
<circle cx="40.9187" cy="13.7898" r="7.78983" stroke="#161530" stroke-width="0.864865"/>
</g>
<defs>
<filter id="filter0_d_419_6280" x="0.37838" y="0.696475" width="61.0479" height="61.0479" filterUnits="userSpaceOnUse" color-interpolation-filters="sRGB">
<feFlood flood-opacity="0" result="BackgroundImageFix"/>
<feColorMatrix in="SourceAlpha" type="matrix" values="0 0 0 0 0 0 0 0 0 0 0 0 0 0 0 0 0 0 127 0" result="hardAlpha"/>
<feOffset dy="5.18919"/>
<feGaussianBlur stdDeviation="10.8108"/>
<feColorMatrix type="matrix" values="0 0 0 0 0.602048 0 0 0 0 0.949963 0 0 0 0 0.930168 0 0 0 0.355129 0"/>
<feBlend mode="normal" in2="BackgroundImageFix" result="effect1_dropShadow_419_6280"/>
<feBlend mode="normal" in="SourceGraphic" in2="effect1_dropShadow_419_6280" result="shape"/>
</filter>
<filter id="filter1_d_419_6280" x="24.9135" y="2.97376" width="32.0109" height="32.0109" filterUnits="userSpaceOnUse" color-interpolation-filters="sRGB">
<feFlood flood-opacity="0" result="BackgroundImageFix"/>
<feColorMatrix in="SourceAlpha" type="matrix" values="0 0 0 0 0 0 0 0 0 0 0 0 0 0 0 0 0 0 127 0" result="hardAlpha"/>
<feOffset dy="5.18919"/>
<feGaussianBlur stdDeviation="3.89189"/>
<feColorMatrix type="matrix" values="0 0 0 0 0.0944005 0 0 0 0 0.0811398 0 0 0 0 0.223693 0 0 0 1 0"/>
<feBlend mode="normal" in2="BackgroundImageFix" result="effect1_dropShadow_419_6280"/>
<feBlend mode="normal" in="SourceGraphic" in2="effect1_dropShadow_419_6280" result="shape"/>
</filter>
<linearGradient id="paint0_linear_419_6280" x1="14.7453" y1="12.6776" x2="5.84267" y2="44.9922" gradientUnits="userSpaceOnUse">
<stop stop-color="#3D5DDD"/>
<stop offset="1" stop-color="#DCCBFF"/>
</linearGradient>
</defs>
</svg>
