<svg width="246" height="71" viewBox="0 0 246 71" fill="none" xmlns="http://www.w3.org/2000/svg">
<path d="M81.91 34.42C78.77 34.42 76.16 33.37 74.08 31.27C72.02 29.19 70.99 26.6 70.99 23.5C70.99 20.38 72.02 17.79 74.08 15.73C76.16 13.63 78.77 12.58 81.91 12.58C83.81 12.58 85.56 13.03 87.16 13.93C88.78 14.81 90.04 16.01 90.94 17.53L87.37 19.6C86.85 18.66 86.11 17.93 85.15 17.41C84.19 16.87 83.11 16.6 81.91 16.6C79.87 16.6 78.22 17.24 76.96 18.52C75.72 19.82 75.1 21.48 75.1 23.5C75.1 25.5 75.72 27.15 76.96 28.45C78.22 29.73 79.87 30.37 81.91 30.37C83.11 30.37 84.19 30.11 85.15 29.59C86.13 29.05 86.87 28.32 87.37 27.4L90.94 29.47C90.04 30.99 88.78 32.2 87.16 33.1C85.56 33.98 83.81 34.42 81.91 34.42ZM106.171 32.14C104.651 33.66 102.771 34.42 100.531 34.42C98.2911 34.42 96.4111 33.66 94.8911 32.14C93.3711 30.62 92.6111 28.74 92.6111 26.5C92.6111 24.28 93.3711 22.41 94.8911 20.89C96.4311 19.35 98.3111 18.58 100.531 18.58C102.751 18.58 104.631 19.35 106.171 20.89C107.711 22.43 108.481 24.3 108.481 26.5C108.481 28.72 107.711 30.6 106.171 32.14ZM97.6211 29.47C98.4011 30.25 99.3711 30.64 100.531 30.64C101.691 30.64 102.661 30.25 103.441 29.47C104.221 28.69 104.611 27.7 104.611 26.5C104.611 25.3 104.221 24.31 103.441 23.53C102.661 22.75 101.691 22.36 100.531 22.36C99.3711 22.36 98.4011 22.75 97.6211 23.53C96.8611 24.33 96.4811 25.32 96.4811 26.5C96.4811 27.68 96.8611 28.67 97.6211 29.47ZM113.124 17.2C112.484 17.2 111.924 16.97 111.444 16.51C110.984 16.03 110.754 15.47 110.754 14.83C110.754 14.19 110.984 13.63 111.444 13.15C111.924 12.67 112.484 12.43 113.124 12.43C113.784 12.43 114.344 12.67 114.804 13.15C115.284 13.63 115.524 14.19 115.524 14.83C115.524 15.47 115.284 16.03 114.804 16.51C114.344 16.97 113.784 17.2 113.124 17.2ZM115.074 34H111.204V19H115.074V34ZM126.956 18.58C128.616 18.58 129.966 19.13 131.006 20.23C132.086 21.35 132.626 22.87 132.626 24.79V34H128.756V25.27C128.756 24.29 128.486 23.53 127.946 22.99C127.426 22.45 126.706 22.18 125.786 22.18C124.766 22.18 123.956 22.5 123.356 23.14C122.776 23.76 122.486 24.68 122.486 25.9V34H118.616V19H122.486V20.68C123.406 19.28 124.896 18.58 126.956 18.58Z" fill="white"/>
<path d="M146.07 34.42C142.93 34.42 140.32 33.37 138.24 31.27C136.18 29.19 135.15 26.6 135.15 23.5C135.15 20.38 136.18 17.79 138.24 15.73C140.32 13.63 142.93 12.58 146.07 12.58C147.97 12.58 149.72 13.03 151.32 13.93C152.94 14.81 154.2 16.01 155.1 17.53L151.53 19.6C151.01 18.66 150.27 17.93 149.31 17.41C148.35 16.87 147.27 16.6 146.07 16.6C144.03 16.6 142.38 17.24 141.12 18.52C139.88 19.82 139.26 21.48 139.26 23.5C139.26 25.5 139.88 27.15 141.12 28.45C142.38 29.73 144.03 30.37 146.07 30.37C147.27 30.37 148.35 30.11 149.31 29.59C150.29 29.05 151.03 28.32 151.53 27.4L155.1 29.47C154.2 30.99 152.94 32.2 151.32 33.1C149.72 33.98 147.97 34.42 146.07 34.42ZM166.038 18.58C167.698 18.58 169.048 19.13 170.088 20.23C171.168 21.35 171.708 22.87 171.708 24.79V34H167.838V25.27C167.838 24.29 167.568 23.53 167.028 22.99C166.508 22.45 165.788 22.18 164.868 22.18C163.848 22.18 163.038 22.5 162.438 23.14C161.858 23.76 161.568 24.68 161.568 25.9V34H157.698V13H161.568V20.68C162.488 19.28 163.978 18.58 166.038 18.58ZM186.412 20.77V19H190.282V34H186.412V32.23C185.252 33.69 183.622 34.42 181.522 34.42C179.522 34.42 177.802 33.66 176.362 32.14C174.942 30.6 174.232 28.72 174.232 26.5C174.232 24.3 174.942 22.43 176.362 20.89C177.802 19.35 179.522 18.58 181.522 18.58C183.622 18.58 185.252 19.31 186.412 20.77ZM179.272 29.56C180.052 30.34 181.042 30.73 182.242 30.73C183.442 30.73 184.432 30.34 185.212 29.56C186.012 28.76 186.412 27.74 186.412 26.5C186.412 25.26 186.012 24.25 185.212 23.47C184.432 22.67 183.442 22.27 182.242 22.27C181.042 22.27 180.052 22.67 179.272 23.47C178.492 24.25 178.102 25.26 178.102 26.5C178.102 27.74 178.492 28.76 179.272 29.56ZM202.131 18.58C203.791 18.58 205.141 19.13 206.181 20.23C207.261 21.35 207.801 22.87 207.801 24.79V34H203.931V25.27C203.931 24.29 203.661 23.53 203.121 22.99C202.601 22.45 201.881 22.18 200.961 22.18C199.941 22.18 199.131 22.5 198.531 23.14C197.951 23.76 197.661 24.68 197.661 25.9V34H193.791V19H197.661V20.68C198.581 19.28 200.071 18.58 202.131 18.58ZM222.596 20.86V19H226.376V33.28C226.376 35.58 225.606 37.35 224.066 38.59C222.546 39.81 220.706 40.42 218.546 40.42C215.146 40.42 212.776 39.2 211.436 36.76L214.736 34.87C215.476 36.27 216.786 36.97 218.666 36.97C219.886 36.97 220.846 36.65 221.546 36.01C222.246 35.37 222.596 34.46 222.596 33.28V31.66C221.456 33.18 219.856 33.94 217.796 33.94C215.676 33.94 213.896 33.2 212.456 31.72C211.036 30.2 210.326 28.38 210.326 26.26C210.326 24.14 211.046 22.33 212.486 20.83C213.926 19.33 215.696 18.58 217.796 18.58C219.856 18.58 221.456 19.34 222.596 20.86ZM221.396 29.23C222.196 28.45 222.596 27.46 222.596 26.26C222.596 25.06 222.196 24.09 221.396 23.35C220.616 22.57 219.616 22.18 218.396 22.18C217.196 22.18 216.186 22.57 215.366 23.35C214.586 24.09 214.196 25.06 214.196 26.26C214.196 27.46 214.586 28.45 215.366 29.23C216.166 29.99 217.176 30.37 218.396 30.37C219.616 30.37 220.616 29.99 221.396 29.23ZM244.465 28.09H233.155C233.655 29.97 235.065 30.91 237.385 30.91C238.865 30.91 239.985 30.41 240.745 29.41L243.865 31.21C242.385 33.35 240.205 34.42 237.325 34.42C234.845 34.42 232.855 33.67 231.355 32.17C229.855 30.67 229.105 28.78 229.105 26.5C229.105 24.26 229.845 22.38 231.325 20.86C232.785 19.34 234.685 18.58 237.025 18.58C239.245 18.58 241.055 19.34 242.455 20.86C243.895 22.38 244.615 24.26 244.615 26.5C244.615 26.92 244.565 27.45 244.465 28.09ZM233.095 25.09H240.745C240.525 24.11 240.075 23.36 239.395 22.84C238.735 22.32 237.945 22.06 237.025 22.06C235.985 22.06 235.125 22.33 234.445 22.87C233.765 23.39 233.315 24.13 233.095 25.09Z" fill="#3D5DDD"/>
<g filter="url(#filter0_d_802_4443)">
<rect x="25" y="19.8672" width="20.5874" height="20.5874" rx="1" fill="url(#paint0_linear_802_4443)"/>
</g>
<g filter="url(#filter1_d_802_4443)">
<circle cx="46.8742" cy="16.007" r="9.00699" stroke="white"/>
</g>
<defs>
<filter id="filter0_d_802_4443" x="0" y="0.867188" width="70.5879" height="70.5879" filterUnits="userSpaceOnUse" color-interpolation-filters="sRGB">
<feFlood flood-opacity="0" result="BackgroundImageFix"/>
<feColorMatrix in="SourceAlpha" type="matrix" values="0 0 0 0 0 0 0 0 0 0 0 0 0 0 0 0 0 0 127 0" result="hardAlpha"/>
<feOffset dy="6"/>
<feGaussianBlur stdDeviation="12.5"/>
<feColorMatrix type="matrix" values="0 0 0 0 0.602048 0 0 0 0 0.949963 0 0 0 0 0.930168 0 0 0 0.355129 0"/>
<feBlend mode="normal" in2="BackgroundImageFix" result="effect1_dropShadow_802_4443"/>
<feBlend mode="normal" in="SourceGraphic" in2="effect1_dropShadow_802_4443" result="shape"/>
</filter>
<filter id="filter1_d_802_4443" x="28.3672" y="3.5" width="37.0137" height="37.0137" filterUnits="userSpaceOnUse" color-interpolation-filters="sRGB">
<feFlood flood-opacity="0" result="BackgroundImageFix"/>
<feColorMatrix in="SourceAlpha" type="matrix" values="0 0 0 0 0 0 0 0 0 0 0 0 0 0 0 0 0 0 127 0" result="hardAlpha"/>
<feOffset dy="6"/>
<feGaussianBlur stdDeviation="4.5"/>
<feColorMatrix type="matrix" values="0 0 0 0 0.0944005 0 0 0 0 0.0811398 0 0 0 0 0.223693 0 0 0 1 0"/>
<feBlend mode="normal" in2="BackgroundImageFix" result="effect1_dropShadow_802_4443"/>
<feBlend mode="normal" in="SourceGraphic" in2="effect1_dropShadow_802_4443" result="shape"/>
</filter>
<linearGradient id="paint0_linear_802_4443" x1="16.6118" y1="14.7203" x2="6.31809" y2="52.0842" gradientUnits="userSpaceOnUse">
<stop stop-color="#3D5DDD"/>
<stop offset="1" stop-color="#DCCBFF"/>
</linearGradient>
</defs>
</svg>
