<svg width="116" height="26" viewBox="0 0 116 26" fill="none" xmlns="http://www.w3.org/2000/svg">
<path d="M7.47541 25.5524C3.69773 25.5524 0 22.8341 0 16.6979C0 10.5416 3.69773 7.86328 7.47541 7.86328C9.33427 7.86328 10.7934 8.34299 11.8327 9.02257L10.6934 11.521C9.99386 11.0213 8.9545 10.7015 7.91514 10.7015C5.63654 10.7015 3.55781 12.5004 3.55781 16.6579C3.55781 20.8153 5.6965 22.6542 7.91514 22.6542C8.9545 22.6542 9.99386 22.3344 10.6934 21.8347L11.8327 24.3931C10.7534 25.1127 9.33427 25.5524 7.47541 25.5524Z" fill="#67748E" fill-opacity="0.7"/>
<path d="M20.4871 25.5524C15.6701 25.5524 13.0117 21.7348 13.0117 16.6979C13.0117 11.6609 15.6501 7.86328 20.4871 7.86328C25.3042 7.86328 27.9625 11.641 27.9625 16.6979C27.9625 21.7348 25.3042 25.5524 20.4871 25.5524ZM20.4871 10.6016C17.8088 10.6016 16.4896 13.0001 16.4896 16.6579C16.4896 20.3156 17.8088 22.7341 20.4871 22.7341C23.1655 22.7341 24.4847 20.3156 24.4847 16.6579C24.4847 13.0001 23.1655 10.6016 20.4871 10.6016Z" fill="#67748E" fill-opacity="0.7"/>
<path d="M32.5998 5.12463C31.4605 5.12463 30.541 4.24517 30.541 3.16583C30.541 2.08649 31.4605 1.20703 32.5998 1.20703C33.7391 1.20703 34.6585 2.08649 34.6585 3.16583C34.6585 4.24517 33.7191 5.12463 32.5998 5.12463ZM30.8608 8.20274H34.3387V25.1923H30.8608V8.20274Z" fill="#67748E" fill-opacity="0.7"/>
<path d="M47.9712 25.1926V13.8596C47.9712 11.8808 46.7719 10.6416 44.4134 10.6416C43.1542 10.6416 41.9949 10.8614 41.2953 11.1413V25.2126H37.8574V9.06254C39.5564 8.36297 41.735 7.86328 44.3934 7.86328C49.1505 7.86328 51.4491 9.94201 51.4491 13.5398V25.2126H47.9712" fill="#67748E" fill-opacity="0.7"/>
<path d="M60.5837 25.5519C58.385 25.5519 56.2064 25.0122 54.8672 24.3526V0.447266H58.3051V8.64223C59.1246 8.26247 60.4438 7.94266 61.623 7.94266C66.0004 7.94266 68.9785 11.1007 68.9785 16.2975C68.9785 22.7136 65.6606 25.5519 60.5837 25.5519ZM61.0234 10.641C60.084 10.641 58.9647 10.8609 58.3051 11.2007V22.3538C58.8048 22.5737 59.7842 22.7935 60.7636 22.7935C63.5019 22.7935 65.5206 20.8947 65.5206 16.5574C65.5406 12.8397 63.7817 10.641 61.0234 10.641Z" fill="#67748E" fill-opacity="0.7"/>
<path d="M78.332 25.5524C73.455 25.5524 70.9766 23.5736 70.9766 20.2157C70.9766 15.4786 76.0135 14.6391 81.1503 14.3593V13.28C81.1503 11.1413 79.7312 10.3817 77.5525 10.3817C75.9535 10.3817 73.9947 10.8814 72.8554 11.4211L71.976 9.06254C73.3351 8.46291 75.6337 7.86328 77.9123 7.86328C81.9698 7.86328 84.4483 9.44231 84.4483 13.6397V24.3532C83.229 25.0127 80.7306 25.5524 78.332 25.5524ZM81.1703 16.6579C77.6924 16.8378 74.2346 17.1376 74.2346 20.1557C74.2346 21.9546 75.6137 23.054 78.2321 23.054C79.3314 23.054 80.6306 22.8741 81.1703 22.6142V16.6579Z" fill="#67748E" fill-opacity="0.7"/>
<path d="M92.203 25.5524C90.2242 25.5524 88.1455 25.0127 86.9062 24.3532L88.0655 21.7148C88.945 22.2544 90.8039 22.8141 92.1031 22.8141C93.9619 22.8141 95.2012 21.8947 95.2012 20.4755C95.2012 18.9365 93.902 18.3368 92.183 17.6972C89.9044 16.8378 87.366 15.7984 87.366 12.6204C87.366 9.82208 89.5446 7.86328 93.3223 7.86328C95.3811 7.86328 97.08 8.36297 98.2793 9.06254L97.1999 11.4611C96.4404 10.9814 94.9213 10.4617 93.7021 10.4617C91.9032 10.4617 90.9038 11.4011 90.9038 12.6403C90.9038 14.1794 92.163 14.7191 93.842 15.3587C96.2005 16.2381 98.8189 17.2175 98.8189 20.5355C98.799 23.5536 96.4604 25.5524 92.203 25.5524Z" fill="#67748E" fill-opacity="0.7"/>
<path d="M115.57 16.6164L104.277 18.1954C104.617 21.2536 106.615 22.7926 109.474 22.7926C111.173 22.7926 113.011 22.3729 114.171 21.7533L115.17 24.3317C113.851 25.0312 111.572 25.5309 109.234 25.5309C103.877 25.5309 100.879 22.0931 100.879 16.6764C100.879 11.4796 103.777 7.8418 108.534 7.8418C112.951 7.8418 115.57 10.74 115.57 15.3172C115.61 15.737 115.61 16.1767 115.57 16.6164ZM108.514 10.3802C105.876 10.3802 104.137 12.399 104.077 15.9368L112.312 14.7975C112.272 11.8393 110.773 10.3802 108.514 10.3802Z" fill="#67748E" fill-opacity="0.7"/>
</svg>
