<svg width="93" height="26" viewBox="0 0 93 26" fill="none" xmlns="http://www.w3.org/2000/svg">
<path d="M49.6307 25.189H62.2548C64.1411 25.189 65.6892 24.4149 66.9466 22.8664C68.1558 21.3671 68.7847 19.5776 68.7847 17.5467C68.7847 13.4352 63.5127 10.5329 61.4803 10.5329H54.5639C54.0318 10.5329 53.5956 10.291 53.2578 9.90447C52.919 9.46878 52.7257 8.98539 52.7257 8.40464C52.7257 7.7275 52.919 7.14724 53.2578 6.66336C53.6448 6.17997 54.1282 5.88984 54.7089 5.88984H67.6719V0.713711H54.4665C52.0963 0.713711 50.2576 1.43953 48.9516 2.84199C47.7915 4.14807 47.2103 5.88935 47.2103 7.96944C47.2103 10.0008 47.7915 11.7908 48.9516 13.241C50.2576 14.8372 51.8062 15.6604 53.6925 15.6604H61.6741C62.1569 15.6604 62.5444 15.8054 62.8341 16.1915C63.1729 16.5785 63.318 17.0623 63.318 17.5949C63.318 18.2238 63.076 18.8041 62.689 19.288C62.2538 19.7232 61.7699 19.9651 61.142 19.9651H48.3723L48.179 19.6263L43.3904 4.24495L43.1485 3.76107C41.9874 1.39085 40.0529 0.230324 37.3926 0.230324C35.9414 0.230324 34.6353 0.568646 33.4743 1.29446C32.2651 2.01979 31.4911 3.08393 31.0559 4.4387L24.6224 25.1403L30.4751 25.1894L36.3761 6.76073C36.5212 6.17997 36.86 5.88984 37.2952 5.88984C37.5371 5.88984 37.7304 5.98622 37.8755 6.13178C38.0205 6.32504 38.1174 6.51879 38.1656 6.76073L44.1147 25.1894H49.6307V25.189ZM6.09727 8.25957V25.1403H0.679688V6.42142C0.679688 4.00301 1.26044 2.30992 2.51784 1.29446C3.48511 0.568646 4.93625 0.181641 6.96766 0.181641C8.61206 0.181641 10.015 0.66552 11.2724 1.5846C12.5298 2.50367 13.352 3.76107 13.7877 5.30909L17.3184 17.74L17.8992 19.4331C17.9474 19.7714 18.1411 20.0133 18.3344 20.2061C18.5763 20.4003 18.8178 20.4972 19.1084 20.4003C19.5923 20.3521 19.8342 20.0615 19.8342 19.6263V0.762394H25.3969V19.3844C25.3969 21.4645 24.9135 23.013 23.8975 24.1253C22.9303 25.2376 21.4791 25.8184 19.5441 25.8184C17.851 25.8184 16.4481 25.4796 15.3357 24.8993C13.9815 24.2222 13.1106 23.158 12.7236 21.7546L8.66075 7.58244L8.37061 6.66336C8.27374 6.32504 8.08048 6.0831 7.83854 5.84116C7.5966 5.64741 7.30647 5.59922 7.01634 5.64741C6.72621 5.69609 6.53296 5.84116 6.33921 6.13129C6.18017 6.3937 6.09647 6.69484 6.09727 7.00168V8.25957ZM92.6797 25.189L86.3917 4.24495L86.1498 3.76107C84.9888 1.39085 83.0542 0.230324 80.3939 0.230324C78.9427 0.230324 77.6367 0.568646 76.4761 1.29446C75.2659 2.01979 74.4929 3.08393 74.0567 4.4387L67.6237 25.1403L73.4765 25.1894L79.3774 6.76073C79.5225 6.17997 79.8613 5.88984 80.2965 5.88984C80.5385 5.88984 80.7317 5.98622 80.8768 6.13178C81.0228 6.32504 81.1187 6.51879 81.1679 6.76073L87.1171 25.1894H92.6797V25.189Z" fill="#67748E" fill-opacity="0.7"/>
</svg>
