<svg width="100" height="28" viewBox="0 0 100 28" fill="none" xmlns="http://www.w3.org/2000/svg">
<path d="M14.3726 25.6732C12.8833 25.9352 11.3678 26.0137 9.80019 26.2229L5.0186 12.1943V26.825C3.52935 26.982 2.17071 27.1913 0.759766 27.4007V0.599609H4.73137L10.1659 15.8063V0.599609H14.3726V25.6732ZM22.603 10.4145C24.2231 10.4145 26.7052 10.3359 28.1945 10.3359V14.5235C26.3393 14.5235 24.1708 14.5235 22.603 14.6021V20.8313C25.0591 20.6743 27.5152 20.4648 29.9972 20.3862V24.4166L18.4224 25.3329V0.599609H29.9972V4.78729H22.603V10.4145ZM45.5435 4.78738H41.2063V24.0506C39.7953 24.0506 38.3844 24.0506 37.026 24.1028V4.78738H32.6887V0.599609H45.5437L45.5435 4.78738ZM52.3368 10.1266H58.059V14.3142H52.3368V23.8151H48.2344V0.599609H59.9141V4.78729H52.3368V10.1266ZM66.7074 20.1508C69.0851 20.203 71.4888 20.3865 73.8143 20.5172V24.6525C70.078 24.4168 66.3417 24.1816 62.527 24.1028V0.599609H66.7074V20.1508ZM77.3416 24.9405C78.6741 25.0191 80.0851 25.0976 81.4437 25.2544V0.599609H77.3416V24.9405ZM99.7598 0.599609L94.4556 13.3459L99.7598 27.4007C98.1919 27.1913 96.6243 26.9034 95.0565 26.6416L92.0519 18.8946L88.9952 26.0137C87.4794 25.7517 86.0163 25.6732 84.5011 25.4638L89.8835 13.1887L85.0235 0.599609H89.5173L92.2608 7.64015L95.1873 0.599609H99.7598Z" fill="#67748E" fill-opacity="0.7"/>
</svg>
