<svg width="110" height="28" viewBox="0 0 110 28" fill="none" xmlns="http://www.w3.org/2000/svg">
<path d="M25.8671 9.93156C27.0498 9.93156 28.1846 8.9469 28.382 7.73213C28.6152 6.54973 27.8135 5.56507 26.6317 5.56507C25.4494 5.56507 24.3145 6.54973 24.1142 7.73213C23.8835 8.9469 24.6523 9.93156 25.8671 9.93156ZM106.128 13.446H108.774C109.137 13.446 109.349 13.2988 109.431 12.9605C109.557 12.4365 109.688 11.9133 109.822 11.391C109.9 11.0865 109.722 10.8557 109.385 10.8557H106.774C106.962 10.1075 107.694 7.6783 107.694 6.09461C107.694 2.93181 105.009 0.241549 101.198 0.241549C96.8943 0.241549 94.0944 3.12973 94.0944 7.1938C94.0944 8.37919 94.5367 9.76091 95.0849 10.618C94.849 10.6045 94.6127 10.5979 94.3764 10.598C91.1063 10.598 89.0466 12.3718 89.0466 14.953C89.0466 17.3755 90.9562 18.3169 92.7542 18.9434C94.3513 19.5 95.822 19.759 95.822 21.0066C95.822 21.8479 95.0127 22.3416 93.4291 22.3416C91.55 22.3416 90.5173 21.4567 90.2548 21.121C90.4329 20.9811 90.6976 20.6481 90.6976 20.0932C90.6976 19.317 90.1524 18.6835 89.1398 18.6835C88.283 18.6835 87.5588 19.3823 87.3769 20.3015C86.0008 21.4273 84.4989 22.1568 82.3688 22.1568C80.2714 22.1568 79.1827 21.0659 79.1827 18.7446C79.6745 18.8943 80.9548 19.0741 81.801 19.0741C85.3525 19.0741 87.7729 17.4605 87.7729 14.2291C87.7729 12.4915 86.2474 10.6666 83.2296 10.6666H83.2227C79.2535 10.6666 77.0301 13.1809 76.0593 15.9465C75.7874 15.8809 75.5149 15.8173 75.242 15.7558C75.4591 15.1423 75.615 14.4314 75.615 13.6432C75.615 12.2774 74.7691 10.6666 72.5056 10.6666C70.929 10.6666 69.4334 11.6993 68.3969 13.2471C68.6548 12.2374 68.8258 11.565 68.8369 11.52C68.9044 11.2559 68.7945 10.9618 68.3826 10.9618H66.0595C65.7284 10.9618 65.4948 11.0788 65.4007 11.4558C65.3375 11.7072 64.5393 14.839 63.7623 17.8885C63.2729 19.7899 60.7409 22.1568 57.5586 22.1568C55.4609 22.1568 54.3731 20.9941 54.3731 18.6719C54.922 18.8904 56.145 19.0739 56.9909 19.0739C60.6867 19.0739 62.9627 17.4603 62.9627 14.2289C62.9627 12.4913 61.4374 10.6664 58.4192 10.6664H58.4127C53.9431 10.6664 51.2052 14.138 50.7413 18.0741C50.5483 19.7104 49.1673 21.9573 47.6702 21.9573C46.9408 21.9573 46.534 21.4992 46.534 20.7215C46.534 20.0498 47.0069 18.4073 47.5252 16.349C47.6988 15.6604 47.9624 14.61 48.2546 13.446H50.6845C51.0462 13.446 51.2583 13.2988 51.3405 12.9605C51.4568 12.4733 51.6702 11.6234 51.7307 11.391C51.809 11.0865 51.6327 10.8557 51.2941 10.8557H48.9046C48.9046 10.8557 50.0047 6.46634 50.0309 6.35357C50.1368 5.90725 49.7633 5.64969 49.3726 5.73185C49.3726 5.73185 47.5257 6.09338 47.1832 6.16481C46.8389 6.23447 46.5717 6.42359 46.4473 6.91988L45.4691 10.8557H43.5505C43.1888 10.8557 42.9761 11.0033 42.895 11.3409C42.7675 11.8648 42.6375 12.3881 42.5048 12.9107C42.4254 13.2152 42.6026 13.446 42.9409 13.446H44.8224C44.8091 13.4999 44.1428 16.0343 43.604 18.3039C43.3503 19.3953 42.5007 21.9492 41.1095 21.9492C40.2784 21.9492 39.9273 21.53 39.9273 20.6309C39.9273 19.2148 41.3211 15.6701 41.3211 14.0616C41.3211 11.913 40.1685 10.6682 37.807 10.6682C36.3185 10.6682 34.7751 11.6292 34.121 12.4728C34.121 12.4728 34.3195 11.7823 34.3874 11.5168C34.4599 11.2364 34.3094 10.9609 33.9412 10.9609H31.6324C31.141 10.9609 31.0052 11.2236 30.9331 11.5124C30.9042 11.6284 30.0723 14.8953 29.2736 18.0315C28.7273 20.1791 27.3999 21.9735 25.9807 21.9735C25.251 21.9735 24.9261 21.5156 24.9261 20.7378C24.9261 20.0658 25.3603 18.4075 25.8784 16.3493C26.5087 13.8436 27.0648 11.7802 27.1243 11.5392C27.2018 11.2302 27.0637 10.9611 26.6656 10.9611H24.3429C23.9221 10.9611 23.7718 11.1819 23.6831 11.4887C23.6831 11.4887 23.0294 13.9634 22.3371 16.7184C21.8343 18.7178 21.2791 20.7544 21.2791 21.7112C21.2791 23.4188 22.0458 24.7058 24.1536 24.7058C25.7804 24.7058 27.0678 23.8809 28.0509 22.8298C27.9064 23.3987 27.8142 23.7588 27.8049 23.7956C27.7201 24.1209 27.8229 24.4083 28.206 24.4083H30.583C30.9967 24.4083 31.1558 24.2419 31.2422 23.8811C31.3254 23.5368 33.1006 16.5541 33.1006 16.5541C33.5698 14.6784 34.7304 13.4364 36.3632 13.4364C37.1375 13.4364 37.8076 13.949 37.73 14.9453C37.6438 16.0413 36.322 19.9787 36.322 21.7068C36.322 23.0148 36.8071 24.7071 39.2693 24.7071C40.9477 24.7071 42.1832 23.9024 43.0816 22.8639C43.4106 23.9661 44.2822 24.7071 45.8808 24.7071C48.5376 24.7071 50.1391 23.1313 51.0799 21.5485C51.8607 23.3874 53.6893 24.7062 56.3708 24.7062C59.1038 24.7062 61.2187 23.554 62.7176 21.9878L62.2502 23.8213C62.1652 24.1515 62.309 24.4112 62.6967 24.4112H65.0492C65.3713 24.4112 65.6005 24.2474 65.6841 23.9091C65.7254 23.743 66.0653 22.4294 66.5454 20.5628C67.4636 16.9909 68.9393 13.2852 71.1566 13.2852C71.9386 13.2852 72.2593 13.7224 72.2593 14.4112C72.2593 14.7359 72.165 15.0165 72.0836 15.1669C71.0089 14.9534 70.1442 15.484 70.1442 16.6315C70.1442 17.3792 70.9309 18.0588 71.9928 18.0588C72.8042 18.0588 73.475 17.8598 74.01 17.4997C74.5366 17.6083 75.062 17.7226 75.5861 17.8424C75.5055 18.3604 75.4643 18.8837 75.4628 19.4078C75.4628 22.2747 77.5099 24.706 81.1792 24.706C84.0545 24.706 86.0277 23.6542 87.731 22.3057C88.5498 23.6454 90.6171 24.728 93.3293 24.728C97.0466 24.728 99.1549 22.7951 99.1549 20.2401C99.1549 17.9276 97.2565 17.0764 95.2988 16.3678C93.7074 15.7929 92.38 15.4803 92.38 14.3556C92.38 13.4337 93.1057 13.012 94.3495 13.012C95.1565 13.012 95.7624 13.1858 96.0859 13.2766C96.4068 14.0797 97.0707 14.969 98.2042 14.969C99.1634 14.969 99.594 14.2104 99.594 13.5118C99.594 11.5232 96.2813 11.3147 96.2813 7.04971C96.2813 4.39763 97.782 2.20981 100.89 2.20981C103.049 2.20981 104.46 3.57922 104.46 5.78938C104.46 7.61162 103.354 10.8555 103.354 10.8555H101.476C101.115 10.8555 100.902 11.0031 100.82 11.3407C100.693 11.8648 100.563 12.388 100.429 12.9105C100.35 13.215 100.528 13.4459 100.866 13.4459H102.7C102.7 13.4459 100.804 20.4389 100.804 21.7107C100.804 23.4182 101.766 24.705 103.875 24.705C106.857 24.705 108.721 22.7668 109.532 19.9484C109.595 19.7305 109.471 19.553 109.25 19.553H108.112C107.885 19.553 107.753 19.6824 107.696 19.9045C107.439 20.905 106.802 21.9575 105.548 21.9575C104.818 21.9575 104.412 21.4994 104.412 20.7218C104.412 20.05 104.857 18.477 105.404 16.3493C105.664 15.3362 106.128 13.446 106.128 13.446ZM82.6117 13.3266C83.6664 13.3266 84.1674 14.0282 84.1674 14.8644C84.1674 16.2786 83.0705 17.141 81.3549 17.141C80.7409 17.141 79.8826 16.9955 79.3757 16.8266C79.5888 15.526 80.5302 13.3266 82.6117 13.3266ZM57.8017 13.3266C58.9562 13.3266 59.3569 14.0282 59.3569 14.8644C59.3569 16.2786 58.2605 17.141 56.5451 17.141C55.9309 17.141 55.0726 16.9955 54.5659 16.8266C54.7777 15.526 55.6125 13.3266 57.8017 13.3266ZM12.1602 0.210938C4.63439 0.210938 0.839844 5.60659 0.839844 10.1061C0.839844 12.8305 1.8713 15.2542 4.08357 16.1572C4.44633 16.3057 4.77126 16.1623 4.87647 15.7607C4.94965 15.4827 5.12277 14.7817 5.2 14.4895C5.30626 14.0922 5.26491 13.9529 4.97217 13.6067C4.33426 12.8542 3.92664 11.8801 3.92664 10.5003C3.92664 6.49731 6.92161 2.91369 11.7254 2.91369C15.9793 2.91369 18.3162 5.51282 18.3162 8.98402C18.3162 13.5512 16.2951 17.406 13.2944 17.406C11.6373 17.406 10.3969 16.0355 10.7944 14.3547C11.2705 12.3481 12.1927 10.1824 12.1927 8.73403C12.1927 7.43745 11.4967 6.35604 10.0564 6.35604C8.36244 6.35604 7.00166 8.10844 7.00166 10.456C7.00166 11.9512 7.50692 12.9624 7.50692 12.9624C7.50692 12.9624 5.77334 20.3075 5.46952 21.5939C4.86433 24.1557 5.37839 27.2962 5.42184 27.6134C5.44753 27.8013 5.68907 27.8459 5.7985 27.7041C5.95472 27.5002 7.97206 25.0095 8.65818 22.5205C8.85222 21.8157 9.77232 18.1667 9.77232 18.1667C10.3226 19.2164 11.9311 20.1411 13.6416 20.1411C18.7335 20.1411 22.1883 15.4989 22.1883 9.28521C22.1883 4.58675 18.2087 0.210938 12.1602 0.210938Z" fill="#67748E" fill-opacity="0.7"/>
</svg>
