<svg width="109" height="30" viewBox="0 0 109 30" fill="none" xmlns="http://www.w3.org/2000/svg">
<path d="M11.2817 11.4618C7.01097 10.4435 6.25194 9.72875 6.25194 8.22691C6.25194 6.80807 7.5869 5.85322 9.57457 5.85322C11.5002 5.85322 13.4082 6.5783 15.4106 8.07097C15.4697 8.11616 15.5465 8.13418 15.6203 8.12236C15.6954 8.11158 15.7627 8.07034 15.8064 8.00836L17.8915 5.06908C17.977 4.94812 17.9537 4.78158 17.8383 4.68868C15.4549 2.77691 12.7732 1.84745 9.63659 1.84745C5.02625 1.84745 1.80403 4.61454 1.80403 8.57365C1.80403 12.8192 4.58323 14.3225 9.38555 15.483C13.4702 16.4242 14.1613 17.2128 14.1613 18.6222C14.1613 20.1846 12.7673 21.1563 10.5226 21.1563C8.02991 21.1563 5.99498 20.3145 3.72082 18.3475C3.66412 18.2996 3.59116 18.2753 3.51704 18.2796C3.44025 18.2855 3.37232 18.3209 3.32506 18.3771L0.985925 21.1592C0.888461 21.2773 0.900275 21.4486 1.01251 21.5491C3.6588 23.9118 6.91351 25.1582 10.4281 25.1582C15.3958 25.1582 18.6063 22.444 18.6063 18.2412C18.6151 14.695 16.4916 12.7309 11.2905 11.4657L11.2817 11.4618ZM29.8471 7.25021C27.694 7.25021 25.9279 8.09844 24.4688 9.83655V7.88018C24.4695 7.72615 24.3452 7.60071 24.1912 7.5999H20.3665C20.2129 7.5999 20.0889 7.72571 20.0889 7.88018V29.6179C20.0889 29.7715 20.2129 29.8985 20.3665 29.8985H24.1912C24.3448 29.8985 24.4688 29.7715 24.4688 29.6179V22.757C25.9279 24.3903 27.694 25.1907 29.8471 25.1907C33.849 25.1907 37.9012 22.1102 37.9012 16.2213C37.9071 10.3313 33.8549 7.24991 29.85 7.24991L29.8471 7.25021ZM33.4533 16.2213C33.4533 19.2188 31.6073 21.3128 28.961 21.3128C26.3472 21.3128 24.3743 19.1243 24.3743 16.2213C24.3743 13.3181 26.3472 11.1302 28.961 11.1302C31.563 11.1299 33.4533 13.2705 33.4533 16.221V16.2213ZM48.2825 7.25021C43.1288 7.25021 39.0914 11.2185 39.0914 16.2854C39.0914 21.298 43.1022 25.2232 48.2205 25.2232C53.392 25.2232 57.4412 21.2685 57.4412 16.2213C57.4412 11.1913 53.4186 7.2508 48.2825 7.2508V7.25021ZM48.2825 21.3423C45.5417 21.3423 43.4743 19.139 43.4743 16.2198C43.4743 13.2874 45.4709 11.1594 48.2205 11.1594C50.979 11.1594 53.0583 13.3618 53.0583 16.2839C53.0583 19.2158 51.0499 21.3423 48.2825 21.3423ZM68.4458 7.5999H64.2371V3.29789C64.2374 3.22395 64.2084 3.15291 64.1563 3.1004C64.1042 3.04789 64.0334 3.01822 63.9595 3.01791H60.1348C59.9812 3.01791 59.8542 3.14372 59.8542 3.29789V7.5999H58.0171C57.8636 7.5999 57.7395 7.72571 57.7395 7.88018V11.1665C57.7395 11.3207 57.8636 11.4468 58.0171 11.4468H59.8542V19.9512C59.8542 23.3861 61.5642 25.1287 64.94 25.1287C66.3104 25.1287 67.4475 24.8451 68.5196 24.2367C68.6082 24.1895 68.6614 24.0949 68.6614 23.9945V20.8639C68.6614 20.7694 68.6112 20.6778 68.5285 20.6276C68.4466 20.5752 68.3429 20.5707 68.2568 20.6158C67.5213 20.985 66.8096 21.1563 66.0121 21.1563C64.7865 21.1563 64.2371 20.598 64.2371 19.3517V11.4482H68.4458C68.5994 11.4482 68.7234 11.3224 68.7234 11.168V7.88195C68.7259 7.80785 68.698 7.73596 68.6461 7.683C68.5942 7.63005 68.5229 7.60066 68.4487 7.60167L68.4458 7.5999ZM83.1067 7.61673V7.08836C83.1067 5.53396 83.7033 4.84078 85.0383 4.84078C85.8357 4.84078 86.4766 4.99908 87.1943 5.23831C87.2829 5.26608 87.3745 5.2522 87.4454 5.19933C87.5183 5.14667 87.5613 5.06191 87.5605 4.97191V1.74969C87.562 1.62604 87.4812 1.51645 87.3627 1.48122C86.6066 1.25588 85.6378 1.02462 84.1847 1.02462C80.6554 1.02462 78.7858 3.01348 78.7858 6.77411V7.58336H76.9488C76.7952 7.58336 76.6682 7.70917 76.6682 7.86334V11.1665C76.6682 11.3207 76.7952 11.4468 76.9488 11.4468H78.7858V24.5616C78.7858 24.7181 78.9128 24.8422 79.0664 24.8422H82.8882C83.0447 24.8422 83.1688 24.7181 83.1688 24.5616V11.4477H86.7395L92.2093 24.5616C91.5891 25.9379 90.9777 26.2126 90.1448 26.2126C89.4714 26.2126 88.7596 26.0117 88.036 25.613C87.9675 25.5784 87.8883 25.571 87.8145 25.5923C87.7407 25.6189 87.6787 25.6721 87.6491 25.743L86.3526 28.5871C86.2906 28.723 86.3437 28.8795 86.4737 28.9504C87.8264 29.6829 89.0461 29.9959 90.5553 29.9959C93.3788 29.9959 94.9412 28.6787 96.3146 25.1405L102.948 7.9995C102.983 7.91339 102.972 7.81536 102.919 7.7393C102.868 7.66321 102.782 7.61754 102.691 7.61762H98.7098C98.5887 7.61762 98.4824 7.69352 98.444 7.80546L94.3653 19.4521L89.8997 7.79778C89.8588 7.68965 89.7554 7.61798 89.6398 7.61762H83.1067V7.61673ZM74.6067 7.5999H70.782C70.6284 7.5999 70.5014 7.72571 70.5014 7.88018V24.5616C70.5014 24.7181 70.6284 24.8422 70.782 24.8422H74.6067C74.7603 24.8422 74.8873 24.7181 74.8873 24.5616V7.88136C74.8874 7.80693 74.8579 7.7355 74.8052 7.68289C74.7526 7.63029 74.6811 7.60084 74.6067 7.60108V7.5999ZM72.7165 0.00390625C71.2014 0.00390625 69.9727 1.23018 69.9727 2.74501C69.9727 4.26072 71.2014 5.48847 72.7165 5.48847C74.2316 5.48847 75.4573 4.26072 75.4573 2.74501C75.4573 1.23048 74.2287 0.00390625 72.7165 0.00390625ZM106.215 12.9637C104.702 12.9637 103.524 11.7483 103.524 10.2725C103.524 8.79664 104.717 7.56741 106.229 7.56741C107.741 7.56741 108.92 8.78246 108.92 10.2571C108.92 11.733 107.727 12.9637 106.215 12.9637ZM106.229 7.83499C104.85 7.83499 103.807 8.93072 103.807 10.2725C103.807 11.6136 104.844 12.6946 106.215 12.6946C107.594 12.6946 108.636 11.5998 108.636 10.2571C108.636 8.91596 107.6 7.83499 106.229 7.83499ZM106.826 10.5339L107.588 11.5995H106.944L106.259 10.6219H105.671V11.5995H105.134V8.77478H106.392C107.05 8.77478 107.482 9.11059 107.482 9.67588C107.485 10.139 107.216 10.4219 106.829 10.5339H106.826ZM106.371 9.25944H105.671V10.1529H106.371C106.72 10.1529 106.929 9.98186 106.929 9.70571C106.929 9.41509 106.72 9.25944 106.371 9.25944Z" fill="#67748E" fill-opacity="0.7"/>
</svg>
