<svg width="136" height="26" viewBox="0 0 136 26" fill="none" xmlns="http://www.w3.org/2000/svg">
<path d="M7.1951 24.9347L0 7.72806H4.70931L9.21338 19.1536L13.5692 7.72806H18.0619L11.0606 24.9347H7.1951ZM30.5934 16.2459C30.5987 15.5538 30.5143 14.8639 30.3426 14.1934C30.1974 13.6 29.9421 13.0392 29.59 12.54C29.2727 12.0875 28.8601 11.71 28.3813 11.4339C27.8705 11.1456 27.2916 10.9999 26.7051 11.012C26.1186 10.9993 25.5395 11.1451 25.0289 11.4339C24.5451 11.7074 24.1283 12.0852 23.8088 12.54C23.4594 13.0435 23.208 13.6082 23.0677 14.2048C22.8969 14.8716 22.8126 15.5576 22.8168 16.2459C22.8111 16.938 22.8954 17.628 23.0677 18.2984C23.2112 18.8899 23.4541 19.4528 23.786 19.9632C24.4272 20.9409 25.5247 21.5219 26.6937 21.5025C27.8635 21.5381 28.965 20.9527 29.59 19.9632C29.9372 19.4612 30.1921 18.9013 30.3426 18.3098C30.5158 17.6357 30.6002 16.9418 30.5934 16.2459ZM34.9379 16.2573C34.938 17.3794 34.765 18.4948 34.4247 19.5641C34.093 20.619 33.5714 21.6044 32.8854 22.4717C31.3937 24.348 29.1006 25.4057 26.7051 25.3224C24.3075 25.4002 22.0133 24.344 20.5135 22.4717C19.829 21.6034 19.3074 20.6183 18.9741 19.5641C18.2965 17.4233 18.2965 15.1255 18.9741 12.9847C19.3077 11.941 19.8294 10.9672 20.5135 10.1112C21.2095 9.25472 22.0854 8.5618 23.0791 8.08154C24.2111 7.54485 25.4526 7.27936 26.7051 7.30616C29.0838 7.24041 31.3599 8.27538 32.874 10.1112C33.5581 10.955 34.0827 11.9128 34.4247 12.9847C34.7668 14.0566 34.9379 15.1512 34.9379 16.2573ZM48.2334 11.5252C47.478 11.2069 46.6697 11.0329 45.8503 11.012C44.5486 10.949 43.3037 11.55 42.5435 12.6084C42.1833 13.1089 41.9132 13.6685 41.7453 14.2618C41.5684 14.8732 41.4801 15.5068 41.483 16.1433C41.4791 16.8339 41.5556 17.5228 41.7111 18.1957C41.8482 18.8037 42.0913 19.3827 42.4294 19.9061C42.7373 20.3879 43.1506 20.7934 43.6381 21.092C44.117 21.3885 44.6986 21.5481 45.3485 21.5481C45.9361 21.5351 46.5116 21.3785 47.0247 21.092C47.5165 20.8603 47.9348 20.4972 48.2334 20.043V11.5252ZM48.5869 24.9347L48.4159 23.612C47.9616 24.1056 47.4205 24.5114 46.8195 24.8093C45.0544 25.5644 43.0424 25.4806 41.3462 24.5812C40.4483 24.0873 39.6698 23.4022 39.0656 22.5744C38.4276 21.7038 37.9489 20.7271 37.6517 19.6895C37.3314 18.5775 37.1702 17.4258 37.1728 16.2687C37.1728 15.1398 37.3324 14.0452 37.6631 12.9733C37.9848 11.9327 38.4992 10.9618 39.1797 10.1112C40.6698 8.26372 42.9422 7.22469 45.3143 7.30616C46.2265 7.30616 47.1958 7.4772 48.2334 7.80788V1.1373H52.6577V24.9347H48.5869ZM65.1094 16.8616C64.1339 16.9269 63.1631 17.0488 62.2017 17.2265C61.2439 17.4204 60.5825 17.7396 60.2063 18.2071C59.854 18.6342 59.6606 19.1701 59.6589 19.7237C59.6589 20.2938 59.8642 20.7499 60.2861 21.092C60.7968 21.466 61.4214 21.6514 62.0535 21.6165C62.6236 21.6165 63.1938 21.5025 63.7297 21.2631C64.2366 21.0418 64.7029 20.7373 65.1094 20.3622V16.8616ZM65.4629 24.9119L65.2919 23.6348C64.7861 24.1824 64.1621 24.6075 63.4674 24.8777C62.0063 25.456 60.3842 25.4803 58.9063 24.9461C56.728 24.2199 55.2796 22.156 55.3373 19.8605C55.3075 18.3339 55.9956 16.8817 57.1959 15.938C57.7943 15.4725 58.4593 15.0996 59.1686 14.8319C60.5267 14.3503 61.9406 14.0438 63.3762 13.9197L65.0866 13.7601V13.5092C65.0866 12.5628 64.8357 11.89 64.3454 11.4795C63.7612 11.0453 63.0424 10.8313 62.3158 10.8752C61.0234 10.8817 59.7647 11.2879 58.7125 12.0383C58.4825 12.1844 58.2617 12.3443 58.0511 12.5172L56.5802 9.41566C57.2858 8.88033 58.0606 8.44305 58.8835 8.11575C61.0269 7.2248 63.4058 7.07236 65.6453 7.68245C67.2059 8.17025 68.4523 9.35354 69.0205 10.8866C69.3633 11.8404 69.5257 12.8496 69.4995 13.8627V24.9233L65.4629 24.9119ZM83.1713 5.05983C82.3832 4.70698 81.5259 4.53552 80.6627 4.55811C80.0584 4.55811 79.5338 4.74055 79.1233 5.11684C78.7014 5.48173 78.4962 6.08607 78.4962 6.91847V7.72806H82.2135V11.2971H78.5304V24.9347H74.1061V11.2971H71.8256V7.72806H74.1061V6.81584C74.1061 5.68698 74.2544 4.74055 74.5394 3.96517C75.0113 2.55661 76.1245 1.45613 77.5384 1.00047C79.57 0.457876 81.7229 0.589932 83.673 1.37676L83.1713 5.05983ZM95.2353 16.2459C95.2384 15.5539 95.1542 14.8643 94.9845 14.1934C94.8393 13.6 94.584 13.0392 94.2319 12.54C93.9146 12.0875 93.502 11.71 93.0232 11.4339C92.5124 11.1456 91.9335 10.9999 91.347 11.012C90.7605 10.9993 90.1814 11.1451 89.6708 11.4339C89.1883 11.7092 88.7719 12.0867 88.4507 12.54C88.1008 13.0446 87.8457 13.6087 87.6982 14.2048C87.3511 15.5511 87.3511 16.9635 87.6982 18.3098C87.8485 18.8974 88.0951 19.4561 88.4279 19.9632C88.7397 20.4335 89.1576 20.8241 89.648 21.1034C90.1694 21.3846 90.7548 21.526 91.347 21.5139C92.5151 21.543 93.6118 20.9535 94.2319 19.9632C94.5791 19.4612 94.834 18.9013 94.9845 18.3098C95.1556 17.6353 95.2399 16.9417 95.2353 16.2459ZM99.5798 16.2573C99.582 17.3795 99.4088 18.4952 99.0667 19.5641C98.7369 20.6198 98.215 21.6055 97.5273 22.4717C96.0356 24.348 93.7425 25.4057 91.347 25.3224C88.9494 25.4002 86.6552 24.344 85.1554 22.4717C84.4709 21.6034 83.9493 20.6183 83.616 19.5641C82.9293 17.4247 82.9293 15.1241 83.616 12.9847C83.9462 11.9419 84.464 10.9681 85.144 10.1112C85.8433 9.25341 86.7232 8.56038 87.721 8.08154C88.853 7.54485 90.0945 7.27936 91.347 7.30616C93.7257 7.24041 96.0018 8.27538 97.5159 10.1112C98.2 10.955 98.7246 11.9128 99.0667 12.9847C99.4087 14.0566 99.5798 15.1512 99.5798 16.2573ZM113.32 24.9347V15.1284C113.388 14.0509 113.1 12.981 112.499 12.0839C111.958 11.3771 111.108 10.9773 110.218 11.012C109.542 11.0043 108.877 11.1902 108.303 11.548C107.752 11.8811 107.242 12.2792 106.786 12.7338V24.9347H102.362V7.72806H106.399L106.604 9.09638C107.996 7.93591 109.752 7.30217 111.564 7.30614C112.476 7.30614 113.309 7.44299 114.073 7.71666C114.818 7.98599 115.487 8.43203 116.022 9.01656C116.581 9.6095 117.003 10.3849 117.3 11.3313C117.596 12.2891 117.744 13.4294 117.744 14.7521V24.9347H113.32ZM131.507 14.2618C131.475 13.7267 131.347 13.2016 131.131 12.711C130.955 12.3068 130.699 11.9423 130.378 11.6392C129.826 11.1278 129.102 10.8429 128.349 10.841C127.54 10.8556 126.764 11.1589 126.159 11.6962C125.424 12.3523 124.984 13.2772 124.939 14.2618H131.507ZM124.837 17.4432C124.928 18.8913 125.384 19.9403 126.205 20.5789C127.109 21.2509 128.215 21.593 129.341 21.5481C130.393 21.5468 131.436 21.3536 132.42 20.978C132.78 20.8351 133.131 20.6674 133.469 20.4763C133.699 20.3453 133.913 20.1885 134.107 20.0088L135.293 23.612C134.622 24.066 133.888 24.4194 133.115 24.6611C131.703 25.094 130.236 25.3168 128.759 25.3225C127.672 25.3262 126.593 25.145 125.567 24.7865C124.57 24.4387 123.662 23.874 122.91 23.1331C122.113 22.3351 121.492 21.3798 121.085 20.328C120.603 19.0541 120.37 17.699 120.401 16.3371C120.401 14.8776 120.618 13.6004 121.028 12.483C122.076 9.33865 125.047 7.24107 128.36 7.30616C129.399 7.29579 130.432 7.47749 131.405 7.84209C132.328 8.19557 133.127 8.7543 133.799 9.49548C134.483 10.2481 135.019 11.2173 135.407 12.4146C135.806 13.6004 136 15.0144 136 16.6564V17.4432H124.837Z" fill="#67748E" fill-opacity="0.7"/>
</svg>
