<svg width="20" height="20" viewBox="0 0 20 20" fill="none" xmlns="http://www.w3.org/2000/svg">
<path d="M19.8028 16.7259C16.869 11.3665 13.934 6.00713 10.9996 0.647759C10.9018 0.462283 10.7552 0.307029 10.5756 0.198733C10.396 0.0904359 10.1903 0.0332031 9.98057 0.0332031C9.77086 0.0332031 9.56513 0.0904359 9.38556 0.198733C9.20598 0.307029 9.05936 0.462283 8.96151 0.647759C6.02744 6.00713 3.09088 11.3665 0.158382 16.7259C-0.29568 17.5537 0.28307 18.6268 1.17651 18.6268H18.7859C19.2809 18.6268 19.6134 18.3603 19.7868 17.9987C20.0049 17.6543 20.0634 17.1971 19.804 16.7253" fill="#FFDD15"/>
<path d="M9.03633 10.7737L8.75852 6.62937C8.70664 5.82219 8.68164 5.24219 8.68164 4.89031C8.68164 4.41094 8.80664 4.03813 9.05727 3.76906C9.30883 3.50156 9.63945 3.36719 10.0495 3.36719C10.5441 3.36719 10.8763 3.53937 11.0426 3.88156C11.2104 4.22594 11.2954 4.72031 11.2954 5.36625C11.2954 5.74594 11.2748 6.13281 11.2335 6.525L10.8616 10.7903C10.8213 11.2984 10.7354 11.6878 10.6032 11.9587C10.4701 12.2309 10.2507 12.3653 9.94414 12.3653C9.63414 12.3653 9.41602 12.2344 9.29664 11.9725C9.17383 11.7097 9.08789 11.31 9.03633 10.7737V10.7737ZM9.99633 16.4666C9.64477 16.4666 9.3382 16.3534 9.07539 16.125C8.81258 15.8975 8.68164 15.5787 8.68164 15.1694C8.68164 14.8122 8.80664 14.5069 9.05727 14.2566C9.30883 14.0047 9.61539 13.8797 9.97945 13.8797C10.3435 13.8797 10.6523 14.0047 10.9098 14.2566C11.1645 14.5069 11.2954 14.8122 11.2954 15.1694C11.2954 15.5725 11.1645 15.8906 10.906 16.1206C10.6576 16.347 10.3324 16.4707 9.99633 16.4666" fill="#1F2E35"/>
</svg>
