<svg width="16" height="16" viewBox="0 0 16 16" fill="none" xmlns="http://www.w3.org/2000/svg">
<path d="M9.76194 7.99925L15.1369 2.63676C15.3723 2.40138 15.5045 2.08213 15.5045 1.74926C15.5045 1.41638 15.3723 1.09713 15.1369 0.861755C14.9016 0.626376 14.5823 0.494141 14.2494 0.494141C13.9166 0.494141 13.5973 0.626376 13.3619 0.861755L7.99944 6.23675L2.63694 0.861755C2.40156 0.626376 2.08231 0.494141 1.74944 0.494141C1.41656 0.494141 1.09732 0.626376 0.861935 0.861755C0.626556 1.09713 0.494321 1.41638 0.494321 1.74926C0.494321 2.08213 0.626556 2.40138 0.861935 2.63676L6.23694 7.99925L0.861935 13.3618C0.744775 13.478 0.651782 13.6162 0.588321 13.7685C0.524861 13.9209 0.492188 14.0842 0.492188 14.2493C0.492188 14.4143 0.524861 14.5777 0.588321 14.73C0.651782 14.8823 0.744775 15.0205 0.861935 15.1368C0.978139 15.2539 1.11639 15.3469 1.26871 15.4104C1.42104 15.4738 1.58442 15.5065 1.74944 15.5065C1.91445 15.5065 2.07783 15.4738 2.23016 15.4104C2.38248 15.3469 2.52073 15.2539 2.63694 15.1368L7.99944 9.76175L13.3619 15.1368C13.4781 15.2539 13.6164 15.3469 13.7687 15.4104C13.921 15.4738 14.0844 15.5065 14.2494 15.5065C14.4145 15.5065 14.5778 15.4738 14.7302 15.4104C14.8825 15.3469 15.0207 15.2539 15.1369 15.1368C15.2541 15.0205 15.3471 14.8823 15.4106 14.73C15.474 14.5777 15.5067 14.4143 15.5067 14.2493C15.5067 14.0842 15.474 13.9209 15.4106 13.7685C15.3471 13.6162 15.2541 13.478 15.1369 13.3618L9.76194 7.99925Z" fill="black"/>
</svg>
