<svg width="22" height="21" viewBox="0 0 22 21" fill="none" xmlns="http://www.w3.org/2000/svg">
<path d="M10.8398 1.89759C13.623 1.89759 14.0025 1.89759 15.141 1.89759C16.1531 1.89759 16.6591 2.1506 17.0386 2.27711C17.5447 2.53012 17.9242 2.65663 18.3037 3.03615C18.6832 3.41566 18.9362 3.79518 19.0627 4.30121C19.1892 4.68072 19.3157 5.18675 19.4423 6.1988C19.4423 7.33735 19.4423 7.59036 19.4423 10.5C19.4423 13.4096 19.4423 13.6627 19.4423 14.8012C19.4423 15.8133 19.1892 16.3193 19.0627 16.6988C18.8097 17.2048 18.6832 17.5843 18.3037 17.9639C17.9242 18.3434 17.5447 18.5964 17.0386 18.7229C16.6591 18.8494 16.1531 18.9759 15.141 19.1024C14.0025 19.1024 13.7495 19.1024 10.8398 19.1024C7.93021 19.1024 7.67719 19.1024 6.53864 19.1024C5.52659 19.1024 5.02057 18.8494 4.64105 18.7229C4.13503 18.4699 3.75551 18.3434 3.37599 17.9639C2.99647 17.5843 2.74346 17.2048 2.61695 16.6988C2.49045 16.3193 2.36394 15.8133 2.23743 14.8012C2.23743 13.6627 2.23743 13.4096 2.23743 10.5C2.23743 7.59036 2.23743 7.33735 2.23743 6.1988C2.23743 5.18675 2.49045 4.68072 2.61695 4.30121C2.86996 3.79518 2.99647 3.41566 3.37599 3.03615C3.75551 2.65663 4.13503 2.40361 4.64105 2.27711C5.02057 2.1506 5.52659 2.0241 6.53864 1.89759C7.67719 1.89759 8.05671 1.89759 10.8398 1.89759ZM10.8398 0C7.93021 0 7.67719 0 6.53864 0C5.40009 0 4.64105 0.253013 4.00852 0.506025C3.37599 0.759037 2.74346 1.13856 2.11093 1.77109C1.4784 2.40362 1.22539 2.90964 0.845869 3.66868C0.592857 4.30121 0.46635 5.06024 0.339844 6.1988C0.339844 7.33735 0.339844 7.71687 0.339844 10.5C0.339844 13.4096 0.339844 13.6627 0.339844 14.8012C0.339844 15.9398 0.592857 16.6988 0.845869 17.3313C1.09888 17.9639 1.4784 18.5964 2.11093 19.2289C2.74346 19.8614 3.24948 20.1145 4.00852 20.494C4.64105 20.747 5.40009 20.8735 6.53864 21C7.67719 21 8.05671 21 10.8398 21C13.623 21 14.0025 21 15.141 21C16.2796 21 17.0386 20.747 17.6712 20.494C18.3037 20.241 18.9362 19.8614 19.5688 19.2289C20.2013 18.5964 20.4543 18.0904 20.8338 17.3313C21.0868 16.6988 21.2133 15.9398 21.3398 14.8012C21.3398 13.6627 21.3398 13.2831 21.3398 10.5C21.3398 7.71687 21.3398 7.33735 21.3398 6.1988C21.3398 5.06024 21.0868 4.30121 20.8338 3.66868C20.5808 3.03615 20.2013 2.40362 19.5688 1.77109C18.9362 1.13856 18.4302 0.885543 17.6712 0.506025C17.0386 0.253013 16.2796 0.126506 15.141 0C14.0025 0 13.7495 0 10.8398 0Z" fill="white"/>
<path d="M10.8398 5.06024C7.8037 5.06024 5.40008 7.46386 5.40008 10.5C5.40008 13.5361 7.8037 15.9398 10.8398 15.9398C13.876 15.9398 16.2796 13.5361 16.2796 10.5C16.2796 7.46386 13.876 5.06024 10.8398 5.06024ZM10.8398 14.0422C8.94225 14.0422 7.29768 12.5241 7.29768 10.5C7.29768 8.60241 8.81575 6.95783 10.8398 6.95783C12.7374 6.95783 14.382 8.4759 14.382 10.5C14.382 12.3976 12.7374 14.0422 10.8398 14.0422Z" fill="white"/>
<path d="M16.4061 6.1988C17.1048 6.1988 17.6712 5.63241 17.6712 4.93374C17.6712 4.23506 17.1048 3.66868 16.4061 3.66868C15.7074 3.66868 15.141 4.23506 15.141 4.93374C15.141 5.63241 15.7074 6.1988 16.4061 6.1988Z" fill="white"/>
</svg>
