<svg width="31" height="30" viewBox="0 0 31 30" fill="none" xmlns="http://www.w3.org/2000/svg">
<path d="M15.2002 2.71084C19.1761 2.71084 19.7183 2.71084 21.3448 2.71084C22.7906 2.71084 23.5134 3.07229 24.0556 3.25301C24.7785 3.61446 25.3207 3.79518 25.8628 4.33735C26.405 4.87952 26.7665 5.42169 26.9472 6.14458C27.1279 6.68675 27.3086 7.40964 27.4894 8.85542C27.4894 10.4819 27.4894 10.8434 27.4894 15C27.4894 19.1566 27.4894 19.5181 27.4894 21.1446C27.4894 22.5904 27.1279 23.3133 26.9472 23.8554C26.5857 24.5783 26.405 25.1205 25.8628 25.6627C25.3207 26.2048 24.7785 26.5663 24.0556 26.747C23.5134 26.9277 22.7906 27.1084 21.3448 27.2892C19.7183 27.2892 19.3568 27.2892 15.2002 27.2892C11.0436 27.2892 10.6821 27.2892 9.05562 27.2892C7.60984 27.2892 6.88694 26.9277 6.34478 26.747C5.62188 26.3855 5.07971 26.2048 4.53755 25.6627C3.99538 25.1205 3.63393 24.5783 3.45321 23.8554C3.27249 23.3133 3.09176 22.5904 2.91104 21.1446C2.91104 19.5181 2.91104 19.1566 2.91104 15C2.91104 10.8434 2.91104 10.4819 2.91104 8.85542C2.91104 7.40964 3.27249 6.68675 3.45321 6.14458C3.81465 5.42169 3.99538 4.87952 4.53755 4.33735C5.07971 3.79518 5.62188 3.43374 6.34478 3.25301C6.88694 3.07229 7.60984 2.89157 9.05562 2.71084C10.6821 2.71084 11.2243 2.71084 15.2002 2.71084ZM15.2002 0C11.0436 0 10.6821 0 9.05562 0C7.42911 0 6.34478 0.361447 5.44116 0.722893C4.53755 1.08434 3.63393 1.62651 2.73032 2.53012C1.8267 3.43374 1.46526 4.15663 0.923088 5.24097C0.561642 6.14458 0.380918 7.22892 0.200195 8.85542C0.200195 10.4819 0.200195 11.0241 0.200195 15C0.200195 19.1566 0.200195 19.5181 0.200195 21.1446C0.200195 22.7711 0.561642 23.8554 0.923088 24.759C1.28453 25.6627 1.8267 26.5663 2.73032 27.4699C3.63393 28.3735 4.35682 28.7349 5.44116 29.2771C6.34478 29.6386 7.42911 29.8193 9.05562 30C10.6821 30 11.2243 30 15.2002 30C19.1761 30 19.7183 30 21.3448 30C22.9713 30 24.0556 29.6386 24.9592 29.2771C25.8628 28.9157 26.7665 28.3735 27.6701 27.4699C28.5737 26.5663 28.9351 25.8434 29.4773 24.759C29.8388 23.8554 30.0195 22.7711 30.2002 21.1446C30.2002 19.5181 30.2002 18.9759 30.2002 15C30.2002 11.0241 30.2002 10.4819 30.2002 8.85542C30.2002 7.22892 29.8388 6.14458 29.4773 5.24097C29.1159 4.33735 28.5737 3.43374 27.6701 2.53012C26.7665 1.62651 26.0436 1.26506 24.9592 0.722893C24.0556 0.361447 22.9713 0.180723 21.3448 0C19.7183 0 19.3568 0 15.2002 0Z" fill="#67748E" fill-opacity="0.7"/>
<path d="M15.2002 7.22892C10.8628 7.22892 7.42911 10.6627 7.42911 15C7.42911 19.3374 10.8628 22.7711 15.2002 22.7711C19.5375 22.7711 22.9713 19.3374 22.9713 15C22.9713 10.6627 19.5375 7.22892 15.2002 7.22892ZM15.2002 20.0602C12.4894 20.0602 10.14 17.8916 10.14 15C10.14 12.2892 12.3086 9.93976 15.2002 9.93976C17.911 9.93976 20.2604 12.1084 20.2604 15C20.2604 17.7108 17.911 20.0602 15.2002 20.0602Z" fill="#67748E" fill-opacity="0.7"/>
<path d="M23.152 8.85542C24.1501 8.85542 24.9592 8.0463 24.9592 7.04819C24.9592 6.05009 24.1501 5.24097 23.152 5.24097C22.1539 5.24097 21.3448 6.05009 21.3448 7.04819C21.3448 8.0463 22.1539 8.85542 23.152 8.85542Z" fill="#67748E" fill-opacity="0.7"/>
</svg>
