<svg width="21" height="21" viewBox="0 0 21 21" fill="none" xmlns="http://www.w3.org/2000/svg">
<path d="M17.0103 11.3754C16.8178 11.3754 16.6165 11.3142 16.424 11.2704C16.0342 11.1845 15.6511 11.0705 15.2778 10.9292C14.8718 10.7815 14.4256 10.7892 14.025 10.9507C13.6244 11.1123 13.2977 11.4162 13.1078 11.8042L12.9153 12.1979C12.063 11.7238 11.2799 11.135 10.5878 10.4479C9.90069 9.75582 9.31187 8.97268 8.83777 8.12043L9.20527 7.87543C9.59322 7.68549 9.8972 7.35877 10.0587 6.95816C10.2203 6.55755 10.2279 6.11136 10.0803 5.70543C9.94134 5.3313 9.82734 4.94838 9.73902 4.55918C9.69527 4.36668 9.66027 4.16543 9.63402 3.96418C9.52777 3.34785 9.20494 2.78971 8.72369 2.39027C8.24244 1.99083 7.63438 1.77634 7.00902 1.78543H4.38402C4.00692 1.78189 3.63349 1.85965 3.28914 2.0134C2.94479 2.16715 2.63762 2.39329 2.38852 2.67643C2.13943 2.95957 1.95426 3.29305 1.84564 3.65418C1.73701 4.01531 1.70747 4.39561 1.75902 4.76918C2.22517 8.43489 3.8993 11.8408 6.51697 14.449C9.13464 17.0572 12.5466 18.7189 16.214 19.1717H16.5465C17.1918 19.1726 17.8147 18.9359 18.2965 18.5067C18.5733 18.2591 18.7945 17.9556 18.9453 17.6162C19.0961 17.2768 19.1732 16.9093 19.1715 16.5379V13.9129C19.1608 13.3051 18.9395 12.7199 18.5453 12.2571C18.1512 11.7944 17.6086 11.4827 17.0103 11.3754V11.3754ZM17.4478 16.6254C17.4476 16.7497 17.421 16.8724 17.3697 16.9856C17.3184 17.0988 17.2436 17.1997 17.1503 17.2817C17.0528 17.3666 16.9385 17.4299 16.8149 17.4676C16.6912 17.5053 16.561 17.5165 16.4328 17.5004C13.1558 17.0803 10.112 15.5811 7.7814 13.2394C5.45082 10.8978 3.96613 7.84685 3.56152 4.56793C3.5476 4.43976 3.5598 4.3101 3.5974 4.18678C3.635 4.06345 3.69721 3.94904 3.78027 3.85043C3.86227 3.7571 3.9632 3.68229 4.07635 3.631C4.18951 3.5797 4.31228 3.55309 4.43652 3.55293H7.06152C7.265 3.54841 7.46369 3.61495 7.6234 3.74112C7.7831 3.86729 7.89383 4.04518 7.93652 4.24418C7.97152 4.48335 8.01527 4.7196 8.06777 4.95293C8.16885 5.41418 8.30337 5.86747 8.47027 6.30918L7.24527 6.87793C7.14053 6.92599 7.04632 6.99426 6.96803 7.07883C6.88975 7.1634 6.82895 7.2626 6.78911 7.37073C6.74927 7.47886 6.73118 7.5938 6.73589 7.70894C6.74059 7.82408 6.76799 7.93716 6.81652 8.04168C8.07582 10.7391 10.2441 12.9074 12.9415 14.1667C13.1545 14.2542 13.3935 14.2542 13.6065 14.1667C13.7156 14.1277 13.8159 14.0673 13.9015 13.9892C13.9872 13.9111 14.0564 13.8168 14.1053 13.7117L14.6478 12.4867C15.1001 12.6485 15.5618 12.7829 16.0303 12.8892C16.2636 12.9417 16.4999 12.9854 16.739 13.0204C16.938 13.0631 17.1159 13.1739 17.2421 13.3336C17.3683 13.4933 17.4348 13.692 17.4303 13.8954L17.4478 16.6254Z" fill="#505975"/>
</svg>
