<svg width="37" height="30" viewBox="0 0 37 30" fill="none" xmlns="http://www.w3.org/2000/svg">
<path d="M2.48854 12.9149C12.2058 8.68126 18.6855 5.89017 21.9277 4.54166C31.1846 0.69137 33.1081 0.0225349 34.3618 0.000214112C34.6376 -0.00440783 35.2541 0.0639293 35.6535 0.387991C35.9907 0.661623 36.0835 1.03126 36.1279 1.29069C36.1723 1.55013 36.2276 2.14112 36.1837 2.60291C35.682 7.87366 33.5114 20.6644 32.4072 26.5677C31.9399 29.0656 31.0199 29.9032 30.1292 29.9851C28.1934 30.1633 26.7235 28.7059 24.8487 27.4769C21.915 25.5538 20.2576 24.3567 17.4099 22.4801C14.1189 20.3113 16.2523 19.1193 18.1278 17.1713C18.6187 16.6615 27.1475 8.90392 27.3126 8.20018C27.3332 8.11217 27.3524 7.78409 27.1575 7.61085C26.9626 7.43762 26.6749 7.49686 26.4673 7.54397C26.1731 7.61076 21.4864 10.7085 12.4072 16.8372C11.0769 17.7507 9.87196 18.1957 8.79237 18.1724C7.60221 18.1467 5.31281 17.4995 3.61088 16.9463C1.52339 16.2677 -0.1357 15.9089 0.00876972 14.7565C0.0840185 14.1563 0.91061 13.5424 2.48854 12.9149Z" fill="#67748E" fill-opacity="0.7"/>
</svg>
