<svg width="26" height="21" viewBox="0 0 26 21" fill="none" xmlns="http://www.w3.org/2000/svg">
<path d="M1.74198 9.04045C8.54407 6.07689 13.0799 4.12312 15.3494 3.17916C21.8292 0.483959 23.1757 0.0157745 24.0533 0.000149878C24.2463 -0.00308548 24.6779 0.0447505 24.9575 0.271594C25.1935 0.463136 25.2585 0.721882 25.2895 0.903485C25.3206 1.08509 25.3593 1.49878 25.3286 1.82203C24.9774 5.51156 23.458 14.4651 22.685 18.5974C22.3579 20.3459 21.7139 20.9322 21.0904 20.9896C19.7354 21.1143 18.7065 20.0941 17.3941 19.2338C15.3405 17.8877 14.1803 17.0497 12.1869 15.736C9.8832 14.2179 11.3766 13.3835 12.6895 12.0199C13.0331 11.6631 19.0032 6.23274 19.1188 5.74013C19.1332 5.67852 19.1467 5.44886 19.0102 5.3276C18.8738 5.20633 18.6724 5.2478 18.5271 5.28078C18.3211 5.32753 15.0405 7.49594 8.68505 11.786C7.75384 12.4255 6.91038 12.737 6.15466 12.7207C5.32155 12.7027 3.71897 12.2496 2.52762 11.8624C1.06638 11.3874 -0.0949901 11.1363 0.00613881 10.3296C0.058813 9.9094 0.637427 9.47969 1.74198 9.04045Z" fill="white"/>
</svg>
