<svg width="31" height="30" viewBox="0 0 31 30" fill="none" xmlns="http://www.w3.org/2000/svg">
<path fill-rule="evenodd" clip-rule="evenodd" d="M25.7002 4.3125C22.8877 1.5 19.1377 0 15.2002 0C6.9502 0 0.200195 6.75 0.200195 15C0.200195 17.625 0.950207 20.25 2.26271 22.5L0.200195 30L8.07522 27.9375C10.3252 29.0625 12.7627 29.8125 15.2002 29.8125C23.4502 29.8125 30.2002 23.0625 30.2002 14.8125C30.2002 10.875 28.5127 7.125 25.7002 4.3125ZM15.2002 27.375C12.9502 27.375 10.7002 26.8125 8.82521 25.6875L8.45018 25.5L3.76268 26.8125L5.07521 22.3125L4.70018 21.75C3.38768 19.6875 2.82518 17.4375 2.82518 15.1875C2.82518 8.4375 8.4502 2.8125 15.2002 2.8125C18.5752 2.8125 21.5752 4.125 24.0127 6.375C26.4502 8.8125 27.5752 11.8125 27.5752 15.1875C27.5752 21.75 22.1377 27.375 15.2002 27.375ZM21.9502 18C21.5752 17.8125 19.7002 16.875 19.3252 16.875C18.9502 16.6875 18.7627 16.6875 18.5752 17.0625C18.3877 17.4375 17.6377 18.1875 17.4502 18.5625C17.2627 18.75 17.0752 18.75 16.7002 18.75C16.3252 18.5625 15.2002 18.1875 13.7002 16.875C12.5752 15.9375 11.8252 14.625 11.6377 14.25C11.4502 13.875 11.6377 13.6875 11.8252 13.5C12.0127 13.3125 12.2002 13.125 12.3877 12.9375C12.5752 12.75 12.5752 12.5625 12.7627 12.375C12.9502 12.1875 12.7627 12 12.7627 11.8125C12.7627 11.625 12.0127 9.75 11.6377 9C11.4502 8.4375 11.0752 8.4375 10.8877 8.4375C10.7002 8.4375 10.5127 8.4375 10.1377 8.4375C9.95017 8.4375 9.57517 8.4375 9.20017 8.8125C8.82517 9.1875 7.88771 10.125 7.88771 12C7.88771 13.875 9.20018 15.5625 9.38768 15.9375C9.57518 16.125 12.0127 20.0625 15.7627 21.5625C18.9502 22.875 19.5127 22.5 20.2627 22.5C21.0127 22.5 22.5127 21.5625 22.7002 20.8125C23.0752 19.875 23.0752 19.125 22.8877 19.125C22.7002 18.1875 22.3252 18.1875 21.9502 18Z" fill="#67748E" fill-opacity="0.7"/>
</svg>
