<svg width="22" height="21" viewBox="0 0 22 21" fill="none" xmlns="http://www.w3.org/2000/svg">
<path fill-rule="evenodd" clip-rule="evenodd" d="M18.1899 3.01875C16.2211 1.05 13.5961 0 10.8398 0C5.06484 0 0.339844 4.725 0.339844 10.5C0.339844 12.3375 0.864852 14.175 1.7836 15.75L0.339844 21L5.85236 19.5562C7.42736 20.3438 9.13359 20.8687 10.8398 20.8687C16.6148 20.8687 21.3398 16.1437 21.3398 10.3687C21.3398 7.6125 20.1586 4.9875 18.1899 3.01875ZM10.8398 19.1625C9.26484 19.1625 7.68985 18.7688 6.37735 17.9813L6.11484 17.85L2.83359 18.7687L3.75235 15.6187L3.48984 15.225C2.57109 13.7812 2.17734 12.2063 2.17734 10.6313C2.17734 5.90625 6.11484 1.96875 10.8398 1.96875C13.2023 1.96875 15.3024 2.8875 17.0086 4.4625C18.7149 6.16875 19.5024 8.26875 19.5024 10.6313C19.5024 15.225 15.6961 19.1625 10.8398 19.1625ZM15.5649 12.6C15.3024 12.4688 13.9899 11.8125 13.7274 11.8125C13.4649 11.6812 13.3336 11.6813 13.2023 11.9438C13.0711 12.2063 12.5461 12.7312 12.4149 12.9937C12.2836 13.125 12.1523 13.125 11.8898 13.125C11.6273 12.9937 10.8399 12.7312 9.78986 11.8125C9.00236 11.1562 8.47735 10.2375 8.3461 9.975C8.21485 9.7125 8.34611 9.58125 8.47736 9.45C8.60861 9.31875 8.73984 9.1875 8.87109 9.05625C9.00234 8.925 9.00236 8.79375 9.13361 8.6625C9.26486 8.53125 9.13361 8.4 9.13361 8.26875C9.13361 8.1375 8.6086 6.825 8.3461 6.3C8.21485 5.90625 7.95236 5.90625 7.82111 5.90625C7.68986 5.90625 7.55858 5.90625 7.29608 5.90625C7.16483 5.90625 6.90233 5.90625 6.63983 6.16875C6.37733 6.43125 5.7211 7.0875 5.7211 8.4C5.7211 9.7125 6.63984 10.8938 6.77109 11.1562C6.90234 11.2875 8.60858 14.0437 11.2336 15.0938C13.4648 16.0125 13.8586 15.75 14.3836 15.75C14.9086 15.75 15.9586 15.0938 16.0898 14.5688C16.3523 13.9125 16.3524 13.3875 16.2211 13.3875C16.0899 12.7313 15.8274 12.7313 15.5649 12.6Z" fill="white"/>
</svg>
